<?xml version="1.0" encoding="utf-8"?>
<!-- Generator: Adobe Illustrator 26.0.2, SVG Export Plug-In . SVG Version: 6.00 Build 0)  -->
<svg version="1.1" id="Layer_1" xmlns="http://www.w3.org/2000/svg" xmlns:xlink="http://www.w3.org/1999/xlink" x="0px" y="0px"
	 viewBox="0 0 400 125" style="enable-background:new 0 0 400 125;" xml:space="preserve">
<style type="text/css">
	.st0{fill:url(#SVGID_1_);}
</style>
<linearGradient id="SVGID_1_" gradientUnits="userSpaceOnUse" x1="0" y1="62.5" x2="400" y2="62.5">
	<stop  offset="0" style="stop-color:#21DBAA"/>
	<stop  offset="0.33" style="stop-color:#00B4EF"/>
	<stop  offset="0.66" style="stop-color:#0768DD"/>
	<stop  offset="0.9954" style="stop-color:#5F1AE5"/>
</linearGradient>
<path class="st0" d="M224.6,46.6c-4,0-6.5-2.7-6.5-7.1V25.4h5.3v12.5c0,3,1.2,4,3.5,4c1.9,0,3.5-0.8,4.5-1.8V25.4h5.3v20.4l-5.3,0.7
	v-3C229.7,45.3,227.2,46.6,224.6,46.6z M152.4,21.6c2.1,0,3.3-1.2,3.3-3.2c0-1.9-1.2-3.2-3.3-3.2c-2.1,0-3.2,1.3-3.2,3.2
	C149.2,20.4,150.4,21.6,152.4,21.6z M149.8,45.9h5.3V24.7l-5.3,0.8V45.9z M182.5,35.8c0-6.5,4.5-11.1,10.4-11.1
	c1.5,0,3.1,0.3,4.4,0.7v-9.2l5.3-0.7v30.5h-5.3v-2c-1.4,1.3-3.3,2.7-5.8,2.7C186,46.6,182.5,42.2,182.5,35.8z M187.9,35.6
	c0,4,2,6.5,5.2,6.5c1.7,0,3.1-0.6,4.2-1.7V30.1c-1-0.8-2.3-1.2-3.9-1.2C189.9,28.9,187.9,31.8,187.9,35.6z M291.1,35.6
	c0,6.7-4.6,11-10.6,11c-6,0-10.4-4.1-10.4-10.9c0-6.8,4.6-11,10.6-11C286.8,24.6,291.1,28.8,291.1,35.6z M285.9,35.6
	c0-4-2-6.8-5.3-6.8c-3.4,0-5.3,2.8-5.3,6.7c0,3.9,2,6.7,5.4,6.7C284,42.3,285.9,39.6,285.9,35.6z M165.3,31.2c1-1,2.7-1.9,4.5-1.9
	c2.4,0,3.6,1,3.6,4.1v12.5h5.3V31.8c0-4.4-2.5-7.1-6.6-7.1c-2.5,0-4.9,1.3-6.8,3.3v-3.3l-5.3,0.7v20.5h5.3V31.2z M300.3,31.2
	c1-1,2.7-1.9,4.5-1.9c2.4,0,3.6,1,3.6,4.1v12.5h5.3V31.8c0-4.4-2.5-7.1-6.6-7.1c-2.5,0-4.9,1.3-6.8,3.3v-3.3l-5.3,0.7v20.5h5.3V31.2
	z M132.9,34.8h10.7v-4.7h-10.7v-7.4h13.1v-4.7h-18.5v27.8h5.4V34.8z M249.9,33.5c-2.4-0.6-4.1-1.1-4.1-2.7c0-1.3,1.2-2,3.1-2
	c1.8,0,4.5,0.7,6.5,1.7l1.2-4.1c-1.9-1-4.9-1.6-7.5-1.6c-4.9,0-8.2,2.5-8.2,6.4c0,3.9,3.1,5.5,7,6.4c2.4,0.6,4.1,1.2,4.1,2.8
	c0,1.4-1.3,2.3-3.4,2.3c-2.3,0-4.9-0.8-6.9-1.9l-1.2,4.1c2,1.2,5.3,1.9,8,1.9c5.3,0,8.6-2.9,8.6-6.7
	C256.9,35.9,253.8,34.4,249.9,33.5z M386.5,91.4L399.9,76H390l-11.6,14.4h-0.1V60.3l-8.3,1.1v47.1h8.3V92.9h0.1l11.7,15.6h9.9
	L386.5,91.4z M252.2,88.1c0,1.8-0.3,4-0.7,5.4l-21.3,0.3v0.2c0.4,5.3,3.9,8.9,9.7,8.9c3.5,0,7.2-1.1,10.1-3l1.1,6.9
	c-3.1,1.7-7.4,2.7-11.8,2.7c-10.4,0-17.3-6.6-17.3-17c0-10.6,7-17.6,16.8-17.6C247.4,75,252.2,80.2,252.2,88.1z M244.3,88.3
	c0-4.4-1.9-7.1-6.2-7.1c-4.6,0-7.3,3.7-7.7,7.7l13.9-0.1V88.3z M289.7,91.9c0,10.4-7.2,17.5-16.4,17.5c-2.1,0-5.1-0.4-7.3-1.1
	l-8,1.2V61.4l8.3-1.1v18.8c2.2-2.1,5.1-4.2,9.1-4.2C284.1,75,289.7,81.9,289.7,91.9z M281.3,92.3c0-6.3-3-10.4-8.2-10.4
	c-2.7,0-4.9,1.1-6.7,2.7V101c1.6,1.2,3.7,1.8,6.1,1.8C278.1,102.9,281.3,98.3,281.3,92.3z M326.9,92.2c0,10.6-7.3,17.3-16.8,17.3
	c-9.5,0-16.4-6.5-16.4-17.3c0-10.7,7.3-17.4,16.8-17.4C320.1,74.9,326.9,81.5,326.9,92.2z M318.7,92.3c0-6.3-3.1-10.7-8.5-10.7
	c-5.4,0-8.4,4.4-8.4,10.6c0,6.2,3.1,10.6,8.5,10.6C315.7,102.8,318.7,98.6,318.7,92.3z M364.2,92.2c0,10.6-7.3,17.3-16.8,17.3
	c-9.5,0-16.4-6.5-16.4-17.3c0-10.7,7.3-17.4,16.8-17.4C357.4,74.9,364.2,81.5,364.2,92.2z M355.9,92.3c0-6.3-3.1-10.7-8.5-10.7
	c-5.4,0-8.4,4.4-8.4,10.6c0,6.2,3.1,10.6,8.5,10.6C353,102.8,355.9,98.6,355.9,92.3z M127.6,108.5h8.5V91H153v-7.4h-16.9V71.9h20.8
	v-7.5h-29.3V108.5z M188.4,102.9l-0.6,6.3c-6.2,0.7-9.1-1.2-10.3-4.4h-0.3v0c-2.3,2.8-5.1,4.8-9.2,4.8c-5.8,0-10.1-4-10.1-9.2
	c0-6,4.4-11.1,19.2-11.6v-0.8c0-4.4-1.8-6.2-6.5-6.2c-3.3,0-7.3,1.5-10.8,3.5l-1.7-6.6c3.2-2,8.2-3.8,13.6-3.8
	c10,0,13.9,4.4,13.7,13.4V100C185.5,102.4,185.9,102.8,188.4,102.9z M177.2,93.2c-8.1,1-11.1,2.6-11.1,6.1c0,2.5,1.9,4.2,4.9,4.2
	c2.6,0,4.7-1.2,6.2-2.8V93.2z M208.7,81.8c3,0,6.1,0.9,8.8,2.6l1.8-6.7c-3-1.8-6.8-2.7-11.2-2.7c-10.2,0-17.1,6.8-17.1,17.4
	c0,10.6,6.3,17.2,16.8,17.2c4.4,0,8.5-1,11.3-2.7l-1.3-6.8c-2.5,1.6-5.6,2.5-9,2.5c-5.5,0-9.2-3.9-9.2-10.5
	C199.4,85.9,202.7,81.8,208.7,81.8z M97.3,11C97.3,11,97.3,11,97.3,11H5.7C2.5,11,0,13.6,0,16.7c0,0,0,0,0,0v91.6
	c0,3.1,2.5,5.7,5.7,5.7H55V74.1H41.6V58.6H55V47.1c0-13.3,8.1-20.5,20-20.5c5.7,0,10.6,0.4,12,0.6v13.9l-8.2,0
	c-6.5,0-7.7,3.1-7.7,7.6v9.9h15.4l-2,15.5H71V114h26.2c3.1,0,5.7-2.5,5.7-5.7V16.7C103,13.6,100.4,11,97.3,11z"/>
</svg>
