<?xml version="1.0" encoding="utf-8"?>
<!-- Generator: Adobe Illustrator 26.0.2, SVG Export Plug-In . SVG Version: 6.00 Build 0)  -->
<svg version="1.1" id="Layer_1" xmlns="http://www.w3.org/2000/svg" xmlns:xlink="http://www.w3.org/1999/xlink" x="0px" y="0px"
	 viewBox="0 0 400 137.3" style="enable-background:new 0 0 400 137.3;" xml:space="preserve">
<style type="text/css">
	.st0{fill:url(#SVGID_1_);}
	.st1{fill:url(#SVGID_00000102526358393167296550000008244450216202884521_);}
	.st2{fill:url(#SVGID_00000166642498971482915990000013016248603008660648_);}
	.st3{fill:url(#SVGID_00000015348191183803566520000015216345415734457514_);}
	.st4{fill:url(#SVGID_00000084497540588358808430000017100352258774027437_);}
	.st5{fill:url(#SVGID_00000062870380471730781240000009044464070455377085_);}
	.st6{fill:url(#SVGID_00000142161652154033312150000015681173411902546104_);}
	.st7{fill:url(#SVGID_00000072240058246660220410000017780821585316183450_);}
	.st8{fill:url(#SVGID_00000155145259924866505620000017805294679501576083_);}
	.st9{fill:url(#SVGID_00000153697056915493617480000014971705200933514931_);}
	.st10{fill:url(#SVGID_00000069368227438102263940000014120156979892817036_);}
	.st11{fill:url(#SVGID_00000121998530612248166480000007694867853583950248_);}
</style>
<g>
	<linearGradient id="SVGID_1_" gradientUnits="userSpaceOnUse" x1="-1.364242e-11" y1="14.7812" x2="400" y2="14.7812">
		<stop  offset="0" style="stop-color:#21DBAA"/>
		<stop  offset="0.33" style="stop-color:#00B4EF"/>
		<stop  offset="0.66" style="stop-color:#0768DD"/>
		<stop  offset="0.9954" style="stop-color:#5F1AE5"/>
	</linearGradient>
	<path class="st0" d="M200.4,29.5c3.9-0.2,6.9-3.6,6.6-7.5V7c0-3.8-3-6.9-6.8-7H200c-3.9,0-7,3.2-7,7v15c0,0.3,0,0.6,0,0.8
		C193.2,26.8,196.5,29.8,200.4,29.5z"/>
	
		<linearGradient id="SVGID_00000111179299806836875910000002313773091446888855_" gradientUnits="userSpaceOnUse" x1="0" y1="50.2295" x2="400" y2="50.2295">
		<stop  offset="0" style="stop-color:#21DBAA"/>
		<stop  offset="0.33" style="stop-color:#00B4EF"/>
		<stop  offset="0.66" style="stop-color:#0768DD"/>
		<stop  offset="0.9954" style="stop-color:#5F1AE5"/>
	</linearGradient>
	<path style="fill:url(#SVGID_00000111179299806836875910000002313773091446888855_);" d="M200,39.5L200,39.5
		c-15.3,0-29.4,8.2-37,21.4h74C229.4,47.7,215.3,39.5,200,39.5z"/>
	
		<linearGradient id="SVGID_00000072267755948994614010000013555854872609037474_" gradientUnits="userSpaceOnUse" x1="0" y1="105.7008" x2="400" y2="105.7008">
		<stop  offset="0" style="stop-color:#21DBAA"/>
		<stop  offset="0.33" style="stop-color:#00B4EF"/>
		<stop  offset="0.66" style="stop-color:#0768DD"/>
		<stop  offset="0.9954" style="stop-color:#5F1AE5"/>
	</linearGradient>
	<path style="fill:url(#SVGID_00000072267755948994614010000013555854872609037474_);" d="M32.2,80.2h-0.4c-3.3-4-8.2-6.2-13.4-6.1
		v0.1C7.4,74.2,0,84.5,0,95.3c0,10.8,7.4,21.4,18.5,21.4c4.8,0.1,9.3-1.9,12.5-5.5h0.4v6.4c0,0.4,0,0.8,0,1.2
		c-0.2,4.7-4.2,8.4-8.9,8.2c-0.2,0-0.4,0-0.5,0c-4.3,0.1-7.9-3.4-8-7.7H0.9C1,131,11.4,137.3,22.7,137.3c11.3,0,22.8-6.6,22.8-20.5
		V75.1H32.2V80.2z M31.5,95.5c0,4.9-4,8.9-9,8.9c-4.9,0-8.9-4-8.9-9c0-4.9,4-8.9,9-8.9C27.6,86.5,31.5,90.5,31.5,95.5
		C31.5,95.4,31.5,95.5,31.5,95.5z"/>
	
		<linearGradient id="SVGID_00000035518440868231909420000014128399953604304567_" gradientUnits="userSpaceOnUse" x1="2.728484e-12" y1="29.4639" x2="400" y2="29.4639">
		<stop  offset="0" style="stop-color:#21DBAA"/>
		<stop  offset="0.33" style="stop-color:#00B4EF"/>
		<stop  offset="0.66" style="stop-color:#0768DD"/>
		<stop  offset="0.9954" style="stop-color:#5F1AE5"/>
	</linearGradient>
	<path style="fill:url(#SVGID_00000035518440868231909420000014128399953604304567_);" d="M158.2,39.7c0.1,0.1,0.3,0.3,0.4,0.4
		c2.9,2.6,7.3,2.5,10-0.4c2.6-2.9,2.5-7.3-0.4-10l-10.6-10.6c-2.7-2.7-6.9-2.8-9.7-0.2l-0.3,0.2c-2.7,2.8-2.7,7.2,0,10L158.2,39.7z"
		/>
	
		<linearGradient id="SVGID_00000099623562951102201870000001277333456074165127_" gradientUnits="userSpaceOnUse" x1="3.547029e-11" y1="29.2441" x2="400" y2="29.2441">
		<stop  offset="0" style="stop-color:#21DBAA"/>
		<stop  offset="0.33" style="stop-color:#00B4EF"/>
		<stop  offset="0.66" style="stop-color:#0768DD"/>
		<stop  offset="0.9954" style="stop-color:#5F1AE5"/>
	</linearGradient>
	<path style="fill:url(#SVGID_00000099623562951102201870000001277333456074165127_);" d="M231.9,39.7c2.8,2.7,7.2,2.7,10,0
		L252.5,29c0.1-0.1,0.3-0.3,0.4-0.4c2.6-2.9,2.5-7.3-0.4-10s-7.3-2.5-10,0.4l-10.6,10.6c-2.6,2.7-2.7,6.9-0.2,9.7L231.9,39.7z"/>
	
		<linearGradient id="SVGID_00000129163768003635081240000005268658340155350443_" gradientUnits="userSpaceOnUse" x1="0" y1="95.6242" x2="400" y2="95.6242">
		<stop  offset="0" style="stop-color:#21DBAA"/>
		<stop  offset="0.33" style="stop-color:#00B4EF"/>
		<stop  offset="0.66" style="stop-color:#0768DD"/>
		<stop  offset="0.9954" style="stop-color:#5F1AE5"/>
	</linearGradient>
	<path style="fill:url(#SVGID_00000129163768003635081240000005268658340155350443_);" d="M74.4,73.6c-12.8,0-23,8.9-23,22
		s10.3,22,23,22s23.2-9,23.2-22C97.6,82.7,87.2,73.6,74.4,73.6z M83.6,96c-0.2,5.2-4.5,9.3-9.7,9.2c-5.2-0.2-9.3-4.5-9.2-9.7
		c0.2-5.2,4.5-9.3,9.7-9.2c0,0,0,0,0,0c5.1,0.1,9.2,4.3,9.2,9.5C83.7,95.8,83.7,95.9,83.6,96z"/>
	
		<linearGradient id="SVGID_00000026162122441345453770000018090389267129009568_" gradientUnits="userSpaceOnUse" x1="9.094947e-13" y1="95.2788" x2="400" y2="95.2788">
		<stop  offset="0" style="stop-color:#21DBAA"/>
		<stop  offset="0.33" style="stop-color:#00B4EF"/>
		<stop  offset="0.66" style="stop-color:#0768DD"/>
		<stop  offset="0.9954" style="stop-color:#5F1AE5"/>
	</linearGradient>
	<path style="fill:url(#SVGID_00000026162122441345453770000018090389267129009568_);" d="M335.6,74l0-0.2c-5.3,0-10.3,2.8-13.3,7.2
		h-0.4c-2.3-4.4-6.7-7.1-11.6-7.2c-4.8,0-9.3,2.3-12,6.3H298v-5.1h-13.3v41.7h14.1V92.6c0-0.4,0-0.7,0-1.1c0.3-3.2,3.1-5.5,6.3-5.2
		c3.2,0.3,5.5,3.1,5.2,6.3v24.1h14.1V92.6c0-0.4,0-0.7,0-1.1c0.3-3.2,3.1-5.5,6.3-5.2c3.2,0.3,5.5,3.1,5.2,6.3v24.1h14.1V90.1
		C350.1,79.6,343,74,335.6,74z"/>
	
		<linearGradient id="SVGID_00000025403993742549404060000007108692278966262919_" gradientUnits="userSpaceOnUse" x1="-2.910383e-11" y1="95.8955" x2="400" y2="95.8955">
		<stop  offset="0" style="stop-color:#21DBAA"/>
		<stop  offset="0.33" style="stop-color:#00B4EF"/>
		<stop  offset="0.66" style="stop-color:#0768DD"/>
		<stop  offset="0.9954" style="stop-color:#5F1AE5"/>
	</linearGradient>
	<path style="fill:url(#SVGID_00000025403993742549404060000007108692278966262919_);" d="M400,94.9c-0.3-11.9-10.1-21.2-22-20.9v0
		c-0.3,0-0.7,0-1,0c-11.9,0.3-21.2,10.1-21,21.9c0,14.5,10.9,21.8,22,21.8c9.1,0.3,17.5-5.3,20.7-13.8h-13.6l-0.3,0.3
		c-1.6,1.9-4,3.1-6.6,3.1c-4.1,0-7.4-3-7.9-8.4h29.4v-0.2c0.1-0.9,0.2-1.9,0.2-2.9C400,95.6,400,95.3,400,94.9z M370.2,91.4
		c0.5-4,3.9-7.1,7.9-7.1c4,0.1,7.3,3.1,7.7,7.1H370.2z"/>
	
		<linearGradient id="SVGID_00000065038218011208675670000015430915933623749558_" gradientUnits="userSpaceOnUse" x1="0" y1="83.6008" x2="400" y2="83.6008">
		<stop  offset="0" style="stop-color:#21DBAA"/>
		<stop  offset="0.33" style="stop-color:#00B4EF"/>
		<stop  offset="0.66" style="stop-color:#0768DD"/>
		<stop  offset="0.9954" style="stop-color:#5F1AE5"/>
	</linearGradient>
	<path style="fill:url(#SVGID_00000065038218011208675670000015430915933623749558_);" d="M262.8,79.6h-0.4
		c-3.3-3.6-7.9-5.6-12.8-5.6c-11.3,0-19,10.4-19,21.7s7.6,21.7,19,21.7c5.3-0.1,10.3-2.4,13.7-6.3h0.4v5.6H277V49.9l-14.2-0.1V79.6z
		 M263.1,95.9c0,5.2-4.2,9.4-9.4,9.4c-5.2,0-9.4-4.2-9.4-9.4c0-5.2,4.2-9.4,9.4-9.4C258.9,86.5,263,90.7,263.1,95.9
		C263.1,95.9,263.1,95.9,263.1,95.9z"/>
	
		<linearGradient id="SVGID_00000008839834605369193260000010712988715795341462_" gradientUnits="userSpaceOnUse" x1="1.818989e-12" y1="82.667" x2="400" y2="82.667">
		<stop  offset="0" style="stop-color:#21DBAA"/>
		<stop  offset="0.33" style="stop-color:#00B4EF"/>
		<stop  offset="0.66" style="stop-color:#0768DD"/>
		<stop  offset="0.9954" style="stop-color:#5F1AE5"/>
	</linearGradient>
	<path style="fill:url(#SVGID_00000008839834605369193260000010712988715795341462_);" d="M123.3,48.7c-9,0-16.3,5.1-16.3,15.5v11
		h-6.1v11.4h6.1v30.2H121V86.5h8.6V75.1H121v-8c0-5,3.3-6.6,7.1-6.6c0.9,0,1.9,0.1,2.8,0.4V49.6C128.4,49,125.8,48.7,123.3,48.7
		L123.3,48.7z"/>
	
		<linearGradient id="SVGID_00000031172461087225605970000007214725354615552906_" gradientUnits="userSpaceOnUse" x1="2.728484e-12" y1="95.266" x2="400" y2="95.266">
		<stop  offset="0" style="stop-color:#21DBAA"/>
		<stop  offset="0.33" style="stop-color:#00B4EF"/>
		<stop  offset="0.66" style="stop-color:#0768DD"/>
		<stop  offset="0.9954" style="stop-color:#5F1AE5"/>
	</linearGradient>
	<path style="fill:url(#SVGID_00000031172461087225605970000007214725354615552906_);" d="M209.7,74l-0.1-0.2
		c-4.8,0.1-9.3,2.5-12.2,6.3h-0.2v-5.1h-13.3v41.6H198V93.1c-0.1-0.5-0.1-0.9,0-1.4c0.4-3.5,3.5-6,7-5.6c3.5,0.4,6,3.5,5.6,7v23.6
		h14.1V90.2C224.7,79.5,217.4,74,209.7,74z"/>
	
		<linearGradient id="SVGID_00000104691427898297980790000004457871441858288020_" gradientUnits="userSpaceOnUse" x1="-1.818989e-12" y1="96.4555" x2="400" y2="96.4555">
		<stop  offset="0" style="stop-color:#21DBAA"/>
		<stop  offset="0.33" style="stop-color:#00B4EF"/>
		<stop  offset="0.66" style="stop-color:#0768DD"/>
		<stop  offset="0.9954" style="stop-color:#5F1AE5"/>
	</linearGradient>
	<path style="fill:url(#SVGID_00000104691427898297980790000004457871441858288020_);" d="M162.3,98.7c0,3.4-2.8,6.2-6.2,6.2
		c-3.4,0-6.2-2.8-6.2-6.2V75.1h-14.1v23.4c0,12.3,8.2,19.3,20.2,19.3c12,0,20.2-7.3,20.2-19.3V75.1h-14.1V98.7z"/>
</g>
</svg>
