<?xml version="1.0" encoding="utf-8"?>
<!-- Generator: Adobe Illustrator 26.0.2, SVG Export Plug-In . SVG Version: 6.00 Build 0)  -->
<svg version="1.1" id="Layer_1" xmlns="http://www.w3.org/2000/svg" xmlns:xlink="http://www.w3.org/1999/xlink" x="0px" y="0px"
	 viewBox="0 0 400 125" style="enable-background:new 0 0 400 125;" xml:space="preserve">
<style type="text/css">
	.st0{fill:url(#SVGID_1_);}
</style>
<linearGradient id="SVGID_1_" gradientUnits="userSpaceOnUse" x1="0" y1="62.5225" x2="400.0299" y2="62.5225">
	<stop  offset="0" style="stop-color:#21DBAA"/>
	<stop  offset="0.33" style="stop-color:#00B4EF"/>
	<stop  offset="0.66" style="stop-color:#0768DD"/>
	<stop  offset="0.9954" style="stop-color:#5F1AE5"/>
</linearGradient>
<path class="st0" d="M399.9,86.6c-0.2-0.6-0.4-1-1.1-1.1c-0.6-0.1-1,0.4-1.2,0.9c-0.3,0.7-0.4,1.4-0.6,2.2c-0.4,1.5-0.7,3-1.5,4.3
	c-1,1.6-2.7,1.6-3.9,0.1c-0.6-0.9-0.9-1.8-1.2-2.9c-0.6-2.5-0.7-5-0.7-7.5c-0.1-4.7,0.1-9.5,0.3-14.2c0.1-1.5-0.5-2.6-1.7-3.4
	c-1.3-0.8-2.6-1.3-4.1-1.7c-1.8-0.5-3.1,0.1-3.9,1.8c-2.2,5.1-3.9,10.4-4.9,15.8c-0.2,0.7-0.3,1.4-0.4,2.1c-0.3-1.2-0.4-2.4-0.5-3.6
	c-0.3-3.8-0.4-7.6-0.4-11.4c-0.1-1.6-0.8-2.9-2.2-3.7c-0.7-0.4-1.4-0.7-2.2-0.9c-2.5-0.7-3.5-0.2-4.7,2.1c-1.1,2.3-1.9,4.8-2.7,7.2
	c-0.6,1.6-1.1,3.3-1.7,5c-0.1-0.3-0.1-0.5-0.1-0.7c0-3.6,0-7.3,0-10.9c0-0.8-0.2-1.5-0.9-1.8c-1.6-0.5-3.2-1-5-1
	c-0.7,0-1.1,0.4-1.2,1.1c-0.1,0.4-0.1,0.7-0.1,1c-0.1,6.2-0.2,12.3-0.2,18.5c0,3-0.9,5.5-2.3,8.1c-0.4,0.7-0.8,1.3-1.4,1.8
	c-1.3,1.1-3,0.8-3.8-0.7c-0.3-0.6-0.5-1.2-0.7-1.9c-0.5-2.3-0.6-4.7-0.6-7c-0.1-5.9,0.2-11.7,0.4-17.5c0-0.8-0.2-1.4-0.9-1.7
	c-1.5-0.9-3.2-1.2-4.9-1.2c-1.1,0.1-1.6,0.7-1.6,1.8c0,0.3,0,0.6,0,1c-0.2-0.3-0.3-0.4-0.4-0.6c-3.4-4.4-9.2-4.8-13-0.8
	c-1.4,1.4-2.5,3.2-3.3,5c-2.4,5.4-2.8,11.2-2,17c0.4,2.5-0.1,4.5-1.7,6.3c-1.3,1.4-3.1,1.2-4.2-0.3c-0.6-0.8-1-1.7-1.2-2.7
	c-0.9-3.6-0.8-7.2-0.4-10.8c0.4-2.8,1-5.5,1.6-8.3c0.2-1,0.4-1.9,0.2-2.9c-0.4-1.7-1.8-2.7-3.9-2.6c-1.4,0-2.8,0.5-4.3,0.7
	c-1.4,0.2-2.7,0.5-4.2,0.7c0.2-1,0.3-1.8,0.3-2.7c-0.1-1.5-1.1-2.7-2.7-2.9c-2.5-0.4-4.5,0.8-5.5,3c-1.1,2.6-0.7,5,1.2,6.6
	c0.4,0.3,0.4,0.6,0.3,1c-1.6,6.2-4.4,11.8-8,17c-0.1,0.1-0.1,0.3-0.3,0.2c0-0.2,0-0.3,0-0.4c0-7.5,0-15.1,0.3-22.6
	c0.1-0.8-0.2-1.3-0.9-1.6c-1.4-0.7-2.9-1.1-4.5-1.1c-1.3,0-2,0.7-2,2.1c0,0.2,0.1,0.4-0.1,0.7c-0.3-0.3-0.5-0.6-0.8-0.9
	c-3.3-3.8-8.7-4.1-12.3-0.6c-1.2,1.1-2.2,2.5-2.9,4c-2.9,5.7-3.5,11.8-2.9,18c0.3,2.6-0.4,4.7-2,6.6c-1.3,1.6-3.4,1.3-4.4-0.6
	c-0.2-0.5-0.4-1-0.5-1.5c-0.6-2.4-0.7-4.8-0.7-7.3c-0.1-5.8,0.2-11.6,0.4-17.4c0.1-0.9-0.3-1.5-1.1-2c-1.4-0.7-3-1.1-4.6-1
	c-1.1,0-1.7,0.7-1.8,1.8c0,0.3,0,0.6,0,1.1c-0.3-0.4-0.4-0.5-0.5-0.7c-3.1-4-8.4-4.5-12.2-1.3c-2,1.7-3.3,3.9-4.3,6.3
	c-1.5,3.6-2,7.4-2.1,11.2c-0.1,3.5-1.4,6.4-3.5,9.1c-0.6,0.8-1.3,1.5-2.3,1.9s-1.7,0.2-2.3-0.6c-0.5-0.6-0.8-1.3-1-2.1
	c-0.6-2.2-0.8-4.5-0.8-6.8c0-7.1,0.3-14.2,0.6-21.4c0-0.5,0.3-0.6,0.7-0.6c2.7,0,5.3-0.1,8-0.1c1.4-0.1,1.7-0.3,2.2-1.6
	c0.1-0.3,0.2-0.7,0.3-1c0.3-1.7,0-2.1-1.7-2.2c-2.8-0.2-5.6-0.4-8.5-0.5c-0.5-0.1-0.7-0.2-0.7-0.8c0.2-2.6,0.2-5.2,0.3-7.8
	c0.1-1.1-0.1-1.3-1.1-1.7c-1.5-0.7-3-1-4.6-1.3c-1.6-0.3-2.3,0.3-2.4,1.8c-0.3,2.8-0.3,5.7-0.4,8.5c0,0.7-0.3,0.8-0.9,0.8
	c-2.1-0.1-4.2-0.2-6.3-0.3c-0.4,0-0.8,0.1-1,0.4c-0.8,1.3-1.2,2.7-1,4.3c0.1,0.7,0.4,0.9,1.1,0.9c2.4,0.1,4.7,0.2,7,0.2
	c0.6,0,0.7,0.2,0.7,0.7c-0.1,5.4-0.1,10.9-0.1,16.3c0,0.3,0,0.5-0.1,0.7c-0.7,3.2-2.1,6.1-4.3,8.6c-0.5,0.5-1,1-1.6,1.6
	c0.4-1.7,0.3-3.3-0.2-4.8c-0.8-2.5-2.5-4.4-4.6-6c-2.2-1.6-4.3-3.3-6.5-4.9c-0.4-0.3-0.5-0.4-0.1-0.8c0.9-1,1.6-2.3,2.3-3.5
	c0.7-1.3,1.3-2.6,1.3-4.1c0-1.6-0.9-2.6-2.4-2.9c-3.1-0.6-6.2,0.9-8,3.8c-1.8,3-1.7,5.9,0.4,8.6c0.3,0.4,0.3,0.6,0.1,1
	c-1.7,3.3-3.6,6.6-5.5,9.9c-1.1,1.8-2.1,3.6-3.5,5.1c-0.5,0.5-1,1-1.7,0.8c-0.8-0.2-0.8-1-0.9-1.6c-0.3-1.4-0.3-2.9-0.3-4.3
	c-0.1-5.6,0.3-11.3,0.5-16.9c0.1-1.5-0.6-2.7-1.8-3.6c-0.9-0.7-2-1.2-3-1.7c-1.2-0.6-2.5-0.6-3.8-0.2c-1,0.3-1.8,0.9-2.6,1.5
	c-1.8,1.6-3.1,3.7-4.3,5.9c-1.6,3.2-2.7,6.6-3.9,9.9c-0.1,0.2-0.1,0.6-0.3,0.6c0-5.2,0-10.4,0-15.6c0-0.8-0.3-1.3-1-1.6
	c-1.3-0.6-2.6-1-4-1.1c-1.4-0.1-1.8,0.3-1.8,1.7c-0.1,6.6-0.1,13.2-0.1,19.8c0,2.7-0.1,5.3,0,8c0,1.5,0.1,2.9,0.7,4.3
	c0.4,0.8,1,1.5,1.9,1.7c1,0.2,2.1,0.3,3.1,0.2c1.3-0.2,1.5-0.5,1.7-1.7c1-7.2,3.1-14.2,6.4-20.8c1.2-2.5,2.7-4.8,4.6-6.8
	c0.2-0.2,0.4-0.4,0.6-0.3c0.3,0.1,0.2,0.4,0.2,0.6c-0.1,2-0.2,4-0.3,6c-0.2,4.8-0.6,9.5-0.2,14.4c0.2,2,0.4,3.9,1.2,5.7
	c1.1,2.6,3.4,3.5,6,2.5c1.1-0.4,2.1-1.1,3-1.8c2.4-2.1,4.2-4.7,5.9-7.4c2.1-3.5,4.2-7,6.3-10.5c0.1-0.2,0.2-0.7,0.6-0.3
	c1.8,1.8,4,3.4,5.5,5.4c1.3,1.6,2,3.5,1.8,5.6c-0.3,3.3-2.9,4.8-5.9,3.3c-0.5-0.3-1-0.6-1.5-1c-0.5-0.3-0.9-0.7-1.4-1
	c-0.9-0.6-1.5-0.5-2.3,0.2c-0.9,0.7-1.5,1.6-1.9,2.7c-0.7,1.7-0.4,2.5,1.2,3.4c1.5,0.8,3.1,1.2,4.7,1.5c4.7,0.8,9.1,0.1,13-2.9
	c2.4-1.8,4.1-4.3,5.5-6.9c0.5-0.9,1-1.9,1.4-2.9c0.2,0.2,0.2,0.4,0.2,0.6c0.1,1.2,0.3,2.5,0.6,3.7c0.6,2.3,1.4,4.5,3,6.3
	c2.2,2.4,6.5,3.8,9.9,0.4c1.5-1.5,2.7-3.1,3.6-5c0.3-0.7,0.6-1.4,1-2.1c0.3,0.8,0.6,1.6,0.8,2.4c0.3,0.8,0.7,1.5,1.1,2.2
	c2.1,3.5,5.5,5.1,9.3,4.4c3.1-0.6,5.5-2.3,7.3-4.8c0.5-0.6,0.9-1.3,1.3-2c0.8,3.9,2.9,6.5,6.9,6.9c4.1,0.4,6.4-2.3,8-5.6
	c0.2,0.3,0.3,0.5,0.4,0.7c1.8,3.2,4.6,5.2,8.4,5c3.1-0.2,5.5-1.6,7.6-3.9c0.4-0.5,0.8-0.9,1.2-1.4c0.1,0,0.1,0,0.2,0.1
	c0,0.8-0.1,1.7,0,2.5c0.1,0.6-0.2,0.9-0.6,1.3c-3.2,2.9-6.5,5.7-9.4,8.9c-1.8,1.9-3.4,3.9-4.5,6.3c-1.4,3.5-0.8,7.4,1.7,9.6
	c2.6,2.3,5.7,3.1,9.1,2.4c4.2-0.8,7-3.5,8.6-7.4c1.4-3.4,1.8-7.1,2-10.8c0.1-3.4,0-6.8-0.1-10.3c0-0.6,0.2-1,0.5-1.4
	c1.4-1.6,2.8-3.4,4-5.2c3.7-5.3,6.7-11.1,8.8-17.2c0.1-0.3,0.2-0.6,0.6-0.6c1.5,0,3-0.1,4.6-0.1c0.6,0,0.8,0.2,0.7,0.9
	c-0.3,1.1-0.5,2.3-0.7,3.4c-0.8,4.5-1.2,8.9-0.4,13.5c0.5,2.9,1.6,5.5,4,7.4c1.7,1.4,3.7,2.4,6.1,2c2.7-0.4,4.4-2.1,5.7-4.3
	c0.2-0.3,0.4-0.6,0.6-1c0.2,0.3,0.3,0.6,0.5,0.8c2.1,3.5,5.4,5.1,9.3,4.5c3.1-0.6,5.5-2.3,7.3-4.9c0.5-0.6,0.9-1.3,1.3-2.1
	c0.9,3.9,3,6.5,7,7s6-2.2,7.5-5.5c0.1,1.2,0.2,2.3,0.3,3.3c0.1,0.7,0.4,1.2,1,1.5c1.7,0.8,3.4,0.9,5.3,0.7c1.6-0.2,1.9-0.5,2-2.1
	c0.2-2.8,0.1-5.6,0.4-8.4c0.5-5.4,2.1-10.4,4.5-15.2c0.1-0.3,0.3-0.5,0.5-0.7c0.1-0.2,0.3-0.3,0.5-0.2c0.2,0.1,0.2,0.3,0.2,0.4
	c0,0.2,0,0.3,0.1,0.5c0.1,4.3,0.4,8.6,0.8,12.9c0.3,2.3,0.5,4.6,1.2,6.8c1,3,3.5,4,6.3,3.2c0.9-0.3,1.2-0.7,1.2-1.6
	c0-0.4,0-0.8,0-1.2c0.5-7.3,2.2-14.3,5.2-20.9c0.1-0.2,0.1-0.4,0.4-0.4c0,0.4,0,0.7,0,1c-0.2,2.4-0.2,4.8-0.1,7.2
	c0.1,3.5,0.2,6.9,0.9,10.4c0.5,2.5,1.4,4.8,3.4,6.6c3,2.7,8.2,3.2,10.8-2c0.8-1.6,1.3-3.3,1.6-5C399.9,88.8,400.2,87.7,399.9,86.6z
	 M243.8,88.4c-0.6,1.7-1.4,3.3-2.7,4.6c-2,1.8-4.2,1.5-5.6-0.8c-1.1-1.7-1.4-3.6-1.7-5.6c-0.2-1.3-0.2-2.5-0.2-3.8
	c0.1-3.3,0.3-6.6,1.4-9.8c0.4-1.2,0.9-2.3,1.7-3.2c2.1-2.5,5.4-2.1,7,0.7c0.9,1.6,1.2,3.4,1.4,5.2C245.3,80,245.1,84.3,243.8,88.4z
	 M276.9,89.5c-0.5,1.4-1.2,2.6-2.4,3.6c-2,1.7-4.2,1.4-5.5-0.8c-1-1.6-1.4-3.5-1.6-5.4c-0.2-1.3-0.3-2.6-0.2-4
	c0.1-3.3,0.4-6.7,1.5-9.9c0.5-1.4,1.2-2.6,2.3-3.6c2.3-2.1,5.3-1.5,6.6,1.3c0.7,1.5,0.9,3.1,1,4.8C278.9,80.3,278.6,84.9,276.9,89.5
	z M278.2,116.6c-0.5,1.5-1,3.1-2.6,4c-1.5,0.9-3.1,1.2-4.6,0.2s-1.8-2.6-1.6-4.3c0.2-1.4,0.7-2.8,1.4-4.1c2.2-4,5.4-7.1,8.7-10.5
	C279.5,107,279.6,111.9,278.2,116.6z M336,88.4c-0.6,1.7-1.3,3.3-2.7,4.5c-2.1,1.9-4.3,1.6-5.7-0.8c-1.1-1.8-1.4-3.7-1.6-5.8
	c-0.2-1.4-0.2-2.9-0.2-4.3c0.2-3.2,0.3-6.5,1.5-9.5c0.4-1.1,1-2.1,1.8-2.9c2.2-2.2,5.3-1.7,6.8,1c1,1.8,1.3,3.9,1.4,5.9
	C337.5,80.5,337.3,84.5,336,88.4z M139.7,69.5c0,6.7,0.1,13.5-0.1,20.3c-0.1,3.6-0.7,7.1-2.5,10.3c-1.2,2.1-2.7,3.7-4.9,4.8
	c-0.4,0.2-0.8,0.3-1.3,0.4c-0.8,0.1-1.2-0.3-1-1.1c0.1-0.4,0.2-0.9,0.4-1.4c1.1-3.4,1.5-6.8,1.5-10.3c0-13.7,0.1-27.3,0.2-41
	c0-0.5-0.1-1-0.1-1.5c0-0.2,0-0.5-0.3-0.6c-0.2,0-0.3,0.2-0.5,0.3c-1.5,1.3-2.7,2.8-3.6,4.5c-2.4,4.2-3.6,8.7-3.3,13.6
	c0.2,2.2,0.8,4.4,2,6.3c0.3,0.5,0.6,0.9,0.8,1.4c0.3,0.9-0.2,1.6-1.2,1.4c-0.8-0.1-1.5-0.4-2.2-0.8c-4.6-2.5-6.9-7.5-5.7-13
	c1.7-7.6,5.9-13.6,12.7-17.6c2.8-1.7,5.4-1,8,0.6c0.8,0.5,1.1,1.2,1.1,2.1C139.6,55.3,139.6,62.4,139.7,69.5z M52.2,25.8
	c-14.9,0.1-27.1,12.3-26.9,27.1c0.2,14.8,12.2,26.7,27,26.7C67,79.6,79,67.7,79.1,52.8C79.2,38,67,25.8,52.2,25.8z M52.2,70
	c-9.7,0-17.3-7.6-17.2-17.4c0-9.7,7.8-17.2,17.5-17.1c9.4,0.1,17,7.8,17,17.4C69.5,62.3,61.8,70,52.2,70z M86.4,24.7
	c0,3.6-2.9,6.6-6.4,6.6s-6.5-3.1-6.4-6.5c0.1-3.5,3-6.3,6.4-6.3C83.5,18.5,86.3,21.2,86.4,24.7z M165.8,33.5h-5.2V5.1h13.3v4.8h-8.1
	v6.3h7.6V21h-7.6V33.5z M184.8,34.1c5.4,0,9.1-4.1,9.1-9.9s-3.7-9.9-9.1-9.9c-5.4,0-9.1,4.1-9.1,9.9S179.3,34.1,184.8,34.1z
	 M184.8,19.1c2.6,0,4.1,2.6,4.1,5.2c0,2.5-1.5,5.2-4.1,5.2c-2.6,0-4.1-2.7-4.1-5.2C180.7,21.7,182.2,19.1,184.8,19.1z M201.2,33.5
	h-4.9v-32h4.9V33.5z M209.6,33.5h-4.9v-32h4.9V33.5z M221.1,34.1c5.4,0,9.1-4.1,9.1-9.9s-3.7-9.9-9.1-9.9c-5.4,0-9.1,4.1-9.1,9.9
	S215.6,34.1,221.1,34.1z M221.1,19.1c2.6,0,4.1,2.6,4.1,5.2c0,2.5-1.5,5.2-4.1,5.2c-2.6,0-4.1-2.7-4.1-5.2
	C216.9,21.7,218.5,19.1,221.1,19.1z M238.1,33.9l-8-18.9h5.4l3.6,10.7l4.3-11.3h2.3l4.4,11.4l3.6-10.8h5.4L251,33.9h-2.5l-3.7-11.3
	l-4.1,11.3H238.1z M270.5,25.9V15h4.9v10.1c0,2.1,0.3,4.6,2.8,4.6s2.8-2.5,2.8-4.6V15h4.9v10.9c0,5.4-2.6,8.2-7.8,8.2
	C273,34.1,270.3,31.3,270.5,25.9z M296.2,27.9c0-1.6-1.8-2-3.5-2.8c-1.8-0.8-3.5-1.9-3.5-4.9c0-3.5,2.3-6,5.5-6c1.9,0,4.2,0.7,5.6,2
	l-2.1,3.1c-0.7-0.7-1.6-1.3-2.6-1.3c-0.8,0-1.6,0.7-1.6,1.6c0,1.4,1.9,1.8,3.6,2.6c1.9,0.8,3.6,2.1,3.6,5.3c0,4.1-3.2,6.6-6.8,6.6
	c-2.3,0-4.6-1.1-6.1-3.1l2.3-3.1c1,1.2,2.3,2.2,3.7,2.2C295.3,30.1,296.2,29.3,296.2,27.9z M322,34.1c5.4,0,9.1-4.1,9.1-9.9
	s-3.7-9.9-9.1-9.9c-5.4,0-9.1,4.1-9.1,9.9S316.5,34.1,322,34.1z M322,19.1c2.6,0,4.1,2.6,4.1,5.2c0,2.5-1.5,5.2-4.1,5.2
	c-2.6,0-4.1-2.7-4.1-5.2C317.9,21.7,319.5,19.1,322,19.1z M338.4,33.5h-4.9V15h4.9v1.7h0.1c1-1.6,2.8-2.3,4.5-2.3c4.7,0,6,3.5,6,7.8
	v11.4h-4.9v-9.8c0-2.2,0.1-5.1-2.7-5.1c-2.9,0-3,3.5-3,5.7V33.5z M77,0.4H27.5C12.4,0.4,0,12.7,0,27.9v49.4
	c0,15.1,12.3,27.5,27.5,27.5h49.4c15.1,0,27.5-12.3,27.5-27.5V27.9C104.4,12.8,92.1,0.4,77,0.4z M96.7,77.3C96.7,88.2,87.8,97,77,97
	H27.5C16.6,97,7.8,88.2,7.8,77.3V27.9C7.8,17,16.6,8.2,27.5,8.2h49.4c10.9,0,19.7,8.8,19.7,19.7L96.7,77.3z"/>
</svg>
