<svg xmlns="http://www.w3.org/2000/svg" viewBox="0 0 425.2 124.14"><defs><style>.cls-1{fill:#033;}.cls-2{fill:#3cc;}</style></defs><g id="Layer_2" data-name="Layer 2"><g id="Layer_1-2" data-name="Layer 1"><path class="cls-1" d="M132.82,76.84a4.88,4.88,0,0,1,1.39,3.48,4.62,4.62,0,0,1-1.39,3.41,4.75,4.75,0,0,1-3.48,1.46h-4.87v34.08a5,5,0,0,1-4.86,4.87,4.75,4.75,0,0,1-3.48-1.46,4.62,4.62,0,0,1-1.39-3.41V85.19h-4.87a4.77,4.77,0,0,1-3.48-1.46A4.62,4.62,0,0,1,105,80.32a4.75,4.75,0,0,1,4.87-4.87h19.47A4.89,4.89,0,0,1,132.82,76.84Zm27,2.86a14.14,14.14,0,0,1,4.31,10.36v19.47a14.61,14.61,0,0,1-29.21,0V90.06a14.6,14.6,0,0,1,24.9-10.36Zm-5.43,10.36a4.77,4.77,0,0,0-1.46-3.48,4.88,4.88,0,0,0-6.82,0,4.77,4.77,0,0,0-1.46,3.48v19.47a4.87,4.87,0,0,0,9.74,0ZM193.19,79.7a14.14,14.14,0,0,1,4.31,10.36v19.47a14.61,14.61,0,0,1-29.21,0V90.06a14.6,14.6,0,0,1,24.9-10.36Zm-5.42,10.36a4.74,4.74,0,0,0-1.47-3.48,4.87,4.87,0,0,0-6.81,0A4.73,4.73,0,0,0,178,90.06v19.47a4.87,4.87,0,0,0,9.74,0Zm38.94-14.61a4.75,4.75,0,0,0-4.87,4.87V98.61L211.62,78.17a5,5,0,0,0-2.29-2.3,4.76,4.76,0,0,0-3.2-.28,4.58,4.58,0,0,0-2.72,1.67,5,5,0,0,0-1,3.06v39a5,5,0,0,0,4.87,4.87,4.79,4.79,0,0,0,3.48-1.46,4.66,4.66,0,0,0,1.39-3.41V100.91l10.22,20.52a4.63,4.63,0,0,0,4.38,2.71,4.69,4.69,0,0,0,1.11-.14,4.89,4.89,0,0,0,2.72-1.74,4.73,4.73,0,0,0,1-3V80.32a4.75,4.75,0,0,0-4.87-4.87Zm34.78,0a4.75,4.75,0,0,0-4.87,4.87V94.93h-9.74V80.32a4.87,4.87,0,1,0-9.74,0v39a4.87,4.87,0,1,0,9.74,0v-14.6h9.74v14.6a4.87,4.87,0,1,0,9.74,0V80.32a4.75,4.75,0,0,0-4.87-4.87Zm34.63,4.25a14.11,14.11,0,0,1,4.32,10.36v19.47a14.61,14.61,0,0,1-29.21,0V90.06A14.59,14.59,0,0,1,296.12,79.7ZM290.7,90.06a4.77,4.77,0,0,0-1.46-3.48,4.88,4.88,0,0,0-6.82,0A4.77,4.77,0,0,0,281,90.06v19.47a4.87,4.87,0,0,0,9.74,0ZM329.51,79.7a14.14,14.14,0,0,1,4.31,10.36v19.47a14.61,14.61,0,0,1-29.21,0V90.06a14.6,14.6,0,0,1,24.9-10.36Zm-5.43,10.36a4.73,4.73,0,0,0-1.46-3.48,4.87,4.87,0,0,0-6.81,0,4.73,4.73,0,0,0-1.46,3.48v19.47a4.87,4.87,0,0,0,9.73,0Zm25.11-3.48a4.88,4.88,0,0,1,6.82,0,4.77,4.77,0,0,1,1.46,3.48,5,5,0,0,0,4.87,4.87,4.75,4.75,0,0,0,3.47-1.46,4.62,4.62,0,0,0,1.39-3.41,14.61,14.61,0,0,0-29.21,0v19.47a14.61,14.61,0,0,0,29.21,0v-8.34a4.75,4.75,0,0,0-4.86-4.87h-7A4.64,4.64,0,0,0,352,97.71a4.75,4.75,0,0,0-1.46,3.48,5,5,0,0,0,4.87,4.87h2.09v3.47a4.87,4.87,0,0,1-9.74,0V90.06A4.77,4.77,0,0,1,349.19,86.58Zm43.05-11.13H372.77a4.75,4.75,0,0,0-4.87,4.87,4.62,4.62,0,0,0,1.39,3.41,4.77,4.77,0,0,0,3.48,1.46h4.87v34.08a4.62,4.62,0,0,0,1.39,3.41,4.75,4.75,0,0,0,3.48,1.46,5,5,0,0,0,4.87-4.87V85.19h4.86a4.75,4.75,0,0,0,3.48-1.46,4.62,4.62,0,0,0,1.39-3.41,4.75,4.75,0,0,0-4.87-4.87Zm28.09,39H409.89v-9.74h8.29a4.75,4.75,0,0,0,3.48-1.46,4.64,4.64,0,0,0,1.39-3.41,4.75,4.75,0,0,0-4.87-4.87h-8.29V85.19h10.44a4.79,4.79,0,0,0,3.48-1.46,4.66,4.66,0,0,0,1.39-3.41,4.75,4.75,0,0,0-4.87-4.87H405a4.75,4.75,0,0,0-4.86,4.87v39a5,5,0,0,0,4.86,4.87h15.31a4.75,4.75,0,0,0,3.47-1.46,4.63,4.63,0,0,0,1.4-3.41,4.77,4.77,0,0,0-4.87-4.87Z"/><path class="cls-2" d="M151.42,54.83c-4.33,0-3.93-14.29-10.41-14.29C124.15,40.54,129.24,67,119.56,67c-8.51,0-9.43-25.16-18.6-25.16-13.22,0-10.39,82.31-17.17,82.31s-4-82.31-17.17-82.31C57.45,41.83,56.53,67,48,67c-9.67,0-4.58-26.45-21.45-26.45-6.48,0-6.07,14.29-10.4,14.29-5,0-2.6-18.22-16.17-18.22,13.57-.78,10.72-18.22,16.17-18.22,4.12,0,3.72,14.29,10.4,14.29C43.34,32.68,38.31,6.23,48,6.23c8.31,0,6.58,25.16,18.6,25.16S75.49,0,83.79,0,89,31.39,101,31.39s10.3-25.16,18.6-25.16c9.71,0,4.68,26.45,21.45,26.45,6.69,0,6.28-14.29,10.41-14.29,5.44,0,2.6,17.44,16.16,18.22C154,36.61,156.45,54.83,151.42,54.83Z"/></g></g></svg>